<svg width="92" height="92" viewBox="0 0 92 92" fill="none" xmlns="http://www.w3.org/2000/svg">
<path d="M76.1651 73.7532C58.0768 87.6808 32.8469 87.5694 14.8823 73.4826L28.0491 67.3105C28.6762 67.0157 29.278 66.67 29.8486 66.2769C30.0217 66.1578 30.1949 66.0333 30.36 65.9035C31.793 64.807 32.9725 63.4143 33.8181 61.8203C34.4573 60.5956 34.882 59.2703 35.0736 57.9022C35.2058 57.0144 35.2727 56.1182 35.2739 55.2206C35.2739 53.6729 35.19 52.1251 35.1737 50.5746C35.1629 49.716 35.1539 48.8582 35.1467 48.0013L35.6879 48.2719L37.0949 48.9998L37.747 49.1108L45.291 50.3933L53.7117 51.8275L53.9661 60.4863L54.05 63.3166L54.0906 64.6912V64.7805L57.3647 66.1118L76.1651 73.7532Z" fill="#E18477"/>
<path d="M54.0798 64.4477C53.1498 64.6077 52.193 64.4595 51.355 64.0256L35.209 50.8181C35.1901 50.2066 35.1738 50.8479 35.1657 50.2364C35.1549 49.3795 35.1459 48.5218 35.1387 47.6631L35.6798 47.9337L37.0869 48.6616L37.739 48.7725L45.283 50.0551L53.7037 51.4892L53.9581 60.148L54.042 62.9784L54.0826 64.353V64.4423L54.0798 64.4477Z" fill="#A76962"/>
<path d="M66.1533 20.5745C70.7956 23.2043 74.4518 27.2785 76.5655 32.1773C74.7688 32.3229 72.9972 32.6919 71.2918 33.2759H71.2755C70.8318 33.4275 70.3916 33.5943 69.9551 33.7765L69.6845 33.8929L69.2542 34.0823V34.0823C69.1108 34.1445 68.9674 34.2122 68.8267 34.2825C68.686 34.3529 68.5561 34.4205 68.4019 34.4936C68.2476 34.5666 68.1313 34.637 67.9825 34.7128C67.8336 34.7885 67.7362 34.8453 67.6145 34.9157C67.3222 35.078 67.0354 35.2485 66.754 35.4244C66.6422 35.4929 66.5312 35.5633 66.4212 35.6355C65.336 36.3378 64.3171 37.1376 63.3771 38.0248C62.1892 39.1477 61.0798 40.4384 59.8594 41.5911C58.8128 42.646 57.5869 43.5064 56.2389 44.1319C53.6305 45.2549 50.6134 45.9043 47.9048 46.8378L35.1872 51.2349C35.1872 51.0346 33.7476 49.6113 31.9401 47.8769C27.1831 43.3545 24.4268 37.1212 24.2825 30.5592C23.8441 10.7359 47.1309 4.90746 62.9766 9.15569C65.4935 9.83343 67.8872 10.9056 70.0687 12.3324C71.5134 13.2666 72.8352 14.3784 74.0031 15.6417C75.3659 17.1079 76.4604 18.8023 77.2366 20.6476L77.0228 20.6097C73.431 19.9473 69.7494 19.9354 66.1533 20.5745Z" fill="url(#paint0_linear_2_3521)"/>
<path d="M76.5657 32.1773C74.7689 32.3228 72.9973 32.6919 71.2919 33.2759H71.2757C70.8266 33.4184 70.3858 33.5855 69.9552 33.7765L69.6846 33.8929L69.249 34.0877C69.1055 34.1526 68.9648 34.2176 68.8214 34.2879C68.678 34.3583 68.5508 34.4259 68.3966 34.499C68.2424 34.572 68.126 34.6424 67.9772 34.7181C67.8284 34.7939 67.731 34.8507 67.6092 34.9211C67.317 35.0834 67.0301 35.2539 66.7487 35.4298L66.4159 35.6409C65.3308 36.3432 64.3119 37.143 63.3718 38.0301C62.1839 39.1531 61.0745 40.4438 59.8541 41.5965C59.4591 41.7589 59.0667 41.9293 58.6744 42.0998C58.7231 42.0781 58.3632 37.4998 58.374 37.0371C58.4192 35.2693 58.6211 33.509 58.9774 31.7769C59.6647 28.4459 59.2264 25.3477 59.8893 21.9329C60.0294 21.1706 60.21 20.4164 60.4305 19.6734C61.5615 18.8292 63.1364 18.5694 64.5083 18.3719C67.7959 17.8984 71.1783 18.3476 74.3414 19.3433C74.8645 19.5089 75.3785 19.7022 75.8811 19.9224C76.1192 20.0279 76.3519 20.1416 76.5819 20.2633C76.7847 20.4161 77.0044 20.545 77.2367 20.6476C73.5717 19.9713 69.8162 19.9466 66.1426 20.5745C70.7889 23.2024 74.4491 27.2769 76.5657 32.1773Z" fill="url(#paint1_linear_2_3521)"/>
<circle cx="32.484" cy="40.4221" r="4.6" fill="#E18477"/>
<circle cx="33.9426" cy="40.4222" r="4.11835" fill="#A76962"/>
<path d="M34.0049 36.0819L35.1901 51.5055L53.1679 62.0097C55.7489 62.9724 58.639 61.8178 59.8461 59.3417C62.4329 54.0436 66.5837 45.6797 66.0371 42.5652C65.2254 37.9652 63.0606 36.3417 63.0606 36.3417C63.3619 34.5378 63.6614 32.7393 63.959 30.9462C64.2999 28.9141 64.7329 26.7926 64.2296 24.7497C63.6532 22.4091 61.8836 21.4079 60.4278 19.6572C56.5963 24.5928 50.297 27.3825 44.7959 30.2102C41.9548 31.7038 34.0049 36.0819 34.0049 36.0819Z" fill="#E18477"/>
<path d="M42.6772 32.8917C45.1829 32.378 47.7594 32.3093 50.2889 32.6887" stroke="#00214E"/>
<path d="M58.6553 32.9215C60.2021 32.5641 61.7957 32.4535 63.377 32.594" stroke="#00214E"/>
<path d="M52.4238 43.3337C52.0199 43.5404 51.827 44.0107 51.9695 44.4415C52.112 44.8723 52.5472 45.1349 52.9947 45.06" stroke="#00214E"/>
<path d="M57.3078 40.5358C57.3078 40.5358 57.3863 42.0647 57.7462 42.7817C57.9004 43.0902 58.1413 43.3499 58.2874 43.6584C58.8854 44.8301 57.9194 45.079 56.9858 45.079" stroke="#00214E"/>
<path d="M76.1651 73.7532C58.0768 87.6807 32.8469 87.5693 14.8823 73.4826L28.0491 67.3105C28.6762 67.0157 29.278 66.67 29.8486 66.2769C30.0217 66.1578 30.1949 66.0333 30.36 65.9035C31.793 64.807 32.9725 63.4142 33.8181 61.8203C34.4573 60.5955 34.882 59.2703 35.0736 57.9022C35.2647 58.0873 35.4652 58.2625 35.6743 58.4271C37.3334 59.654 39.134 60.6769 41.0374 61.4739C41.9614 61.8594 42.9064 62.1927 43.8677 62.4724C46.7641 63.317 49.7882 63.6368 52.7971 63.4167C53.2139 63.3843 53.6333 63.3437 54.05 63.3139L54.0906 64.6885V64.7778L57.3647 66.1091L76.1651 73.7532Z" fill="#00214E"/>
<circle cx="48.338" cy="36.9505" r="5.14118" stroke="white"/>
<circle cx="62.7169" cy="36.1387" r="5.14118" stroke="white"/>
<path d="M53.479 36.9505L57.5757 36.5988" stroke="white"/>
<path d="M47.9536 48.1745C48.0289 48.0561 48.1501 47.9742 48.2881 47.9486C48.4261 47.9229 48.5686 47.9558 48.6815 48.0393C49.2416 48.4343 50.2725 49.2731 51.7337 49.5627C53.7252 49.9604 55.4516 49.1622 55.8656 49.6763C56.0983 49.9658 55.8142 50.3203 55.2703 50.7722C54.1187 51.6322 52.6694 51.9921 51.2493 51.7707C49.3336 51.4108 47.894 49.192 47.894 48.4045C47.8945 48.3241 47.9149 48.2451 47.9536 48.1745V48.1745Z" fill="white"/>
<ellipse cx="47.1271" cy="36.9026" rx="0.884822" ry="2.14847" transform="rotate(-85.77 47.1271 36.9026)" fill="#00214E"/>
<ellipse cx="61.066" cy="36.4636" rx="2.14847" ry="0.884824" transform="rotate(-8.86001 61.066 36.4636)" fill="#00214E"/>
<defs>
<linearGradient id="paint0_linear_2_3521" x1="54.9105" y1="55.8448" x2="86.8893" y2="16.1889" gradientUnits="userSpaceOnUse">
<stop stop-color="#16243F"/>
<stop offset="1" stop-color="#6878B1"/>
</linearGradient>
<linearGradient id="paint1_linear_2_3521" x1="58.3767" y1="42.0992" x2="77.2367" y2="42.0992" gradientUnits="userSpaceOnUse">
<stop stop-color="#16243F"/>
<stop offset="1" stop-color="#6878B1"/>
</linearGradient>
</defs>
</svg>
