<svg width="70" height="82" viewBox="0 0 70 82" fill="none" xmlns="http://www.w3.org/2000/svg">
<g filter="url(#filter0_d_139_1583)">
<path fill-rule="evenodd" clip-rule="evenodd" d="M45.591 3.68176C53.7032 8.97446 55.3051 18.8239 55.416 27.8047C55.4629 31.6015 55.4271 35.3817 55.3913 39.157C55.3218 46.5018 55.2524 53.8276 55.7921 61.2196C55.7543 60.692 47.201 59.4229 46.2242 59.3796C44.1704 59.2908 42.0463 59.4837 39.9461 59.6744C38.9111 59.7684 37.882 59.8619 36.8699 59.9208C35.1048 60.0312 33.3002 60.0754 31.4857 60.1199C28.007 60.2052 24.492 60.2914 21.1487 60.8462C20.5005 60.9541 19.8607 61.0633 19.2262 61.1716C15.867 61.745 12.6545 62.2934 9.09944 62.4914C8.81842 62.5402 8.52929 62.4833 8.28768 62.3318C8.01709 62.1099 8.01709 61.7094 8.01709 61.3603C8.01709 57.1779 8.20444 52.9974 8.39166 48.82C8.6561 42.9194 8.92025 37.0251 8.65568 31.141C8.42031 26.1352 9.25038 21.1363 11.091 16.4752C12.6635 12.4556 15.1305 8.8468 18.3049 5.92223C19.1667 5.14337 20.0916 4.43741 21.0703 3.81164C28.341 -0.864126 38.2661 -1.09683 45.591 3.68176ZM21.7359 23.9678L25.5485 26.6736L37.8332 14.3916L36.2881 13.4148C34.8156 15.9105 32.7947 18.0387 30.3785 19.6383C27.71 21.4714 24.8019 22.9282 21.7359 23.9678Z" fill="#00214E"/>
<path d="M65.7064 63.1706C47.6181 77.0981 22.3882 76.9867 4.42358 62.9L17.5904 56.7279C17.9934 56.5373 18.3863 56.326 18.7675 56.0947L19.0705 55.9053C19.1788 55.8377 19.2843 55.7673 19.3898 55.6943C21.051 54.5482 22.4124 53.0198 23.3593 51.2377C24.4417 49.1947 24.7989 46.938 24.8151 44.638C24.8151 43.3744 24.7637 42.1107 24.7312 40.8498C24.7312 40.5666 24.7258 40.2824 24.715 39.9974C24.7042 39.1406 24.6952 38.2828 24.6879 37.4241H24.7042L25.2237 37.6947L26.6308 38.4226L34.8269 39.8161L43.2476 41.2503L43.4478 48.015L43.4938 49.6114V49.901L43.621 54.1952L46.7246 55.4588L49.1599 56.4438L65.7064 63.1706Z" fill="#F2A196"/>
<path d="M43.4479 48.0123C42.8626 48.4143 42.1631 48.6165 41.4536 48.5886C37.4543 48.1584 29.6452 45.0223 24.7367 39.2181C24.7367 38.9349 24.7313 38.6508 24.7205 38.3658C24.7205 38.0519 24.7205 37.738 24.7205 37.4241L25.24 37.6947L26.647 38.4226L34.8432 39.8161L43.2639 41.2503L43.4479 48.0123Z" fill="#E88870"/>
<ellipse cx="17.1115" cy="28.7572" rx="4.6" ry="4.6" fill="#F2A196"/>
<circle cx="18.735" cy="28.216" r="4.6" fill="#E88870"/>
<path d="M49.187 21.7922C52.3637 32.7998 45.6126 46.11 41.4645 46.11C35.7821 46.11 21.9821 41.5695 18.8081 30.562C15.6341 19.5545 19.8661 8.666 28.2543 6.24694C36.6426 3.82788 46.0076 10.782 49.187 21.7922Z" fill="#F2A196"/>
<path d="M33.4766 35.1647C34.7764 36.617 36.5588 37.5486 38.4933 37.7867" stroke="#00214E"/>
<path d="M39.0562 22.9503C39.0562 23.0044 40.3523 25.2666 41.0369 27.71C41.3533 29.017 41.4997 30.3594 41.4725 31.7038H37.8169" stroke="#00214E"/>
<path d="M42.4141 20.6476C44.3258 19.6737 46.5367 19.4648 48.597 20.0632" stroke="#00214E"/>
<path d="M26.4116 21.7246C29.0479 20.3818 32.1453 20.2826 34.8621 21.454" stroke="#00214E"/>
<path d="M31.1577 24.122C32.8083 24.1355 32.8083 26.6574 31.1577 26.6709H31.0819C29.4313 26.6709 29.4313 24.1355 31.0819 24.122H31.1577Z" fill="#00214E"/>
<path d="M44.7195 23.7458C46.2537 23.7458 46.2537 26.1 44.7195 26.1108H44.6518C43.1203 26.1108 43.1203 23.7567 44.6518 23.7458H44.7195Z" fill="#00214E"/>
<path d="M39.3295 3.35703C39.2036 4.63131 38.9985 5.8965 38.7152 7.14526C38.2311 9.34889 37.4097 11.4646 36.2799 13.4175C34.8074 15.9132 32.7865 18.0414 30.3703 19.641C27.7019 21.4741 24.7937 22.9309 21.7277 23.9704C19.3357 24.8039 16.8571 24.8769 14.2974 25.3856C14.3812 23.321 14.2974 21.3079 14.5517 18.9104C14.7411 17.1895 15.12 15.547 15.883 14.2239C17.9534 10.7228 20.9734 7.88002 24.5932 6.02503L24.6257 6.00879C28.6277 3.94962 34.8269 1.9175 39.3295 3.35703Z" fill="#00214E"/>
<ellipse cx="17.7879" cy="28.7464" rx="1.62624" ry="1.62623" fill="#F2D4CF"/>
<path d="M14.7032 32.6618C14.6031 32.6456 14.5002 32.6266 14.3974 32.6023C12.4442 32.1532 11.1401 30.3085 11.3681 28.3174C11.5961 26.3263 13.2835 24.8242 15.2877 24.8283V24.8283C15.4029 24.8279 15.5034 24.9067 15.5304 25.0188C15.5575 25.1308 15.504 25.2468 15.4013 25.2991C14.2065 25.9425 13.4273 27.1559 13.3393 28.5101C13.2513 29.8643 13.8669 31.1683 14.9684 31.961C15.1125 32.0627 15.1697 32.249 15.1072 32.4141C15.0448 32.5791 14.8786 32.681 14.7032 32.6618V32.6618Z" fill="#F2D4CF"/>
<path d="M14.6167 25.2558C15.1773 25.042 15.7981 25.0488 16.3539 25.2747C16.9438 25.537 17.3944 26.0377 17.5932 26.652C17.7467 27.0857 17.8129 27.5455 17.788 28.005" stroke="#F2D4CF" stroke-width="2"/>
<path d="M65.7064 63.1706C47.6181 77.0981 22.3882 76.9867 4.42358 62.9L17.5904 56.7279C18.2175 56.4331 18.8193 56.0874 19.3898 55.6942C19.563 55.5752 19.7362 55.4507 19.9012 55.3208C21.3342 54.2244 22.5138 52.8316 23.3593 51.2376C23.9986 50.0129 24.4233 48.6877 24.6149 47.3195C24.806 47.5047 25.0065 47.6799 25.2156 47.8445C26.8746 49.0723 28.6752 50.0961 30.5786 50.894C31.5027 51.2794 32.4476 51.6128 33.409 51.8925C36.3054 52.737 39.3294 53.0568 42.3384 52.8368C42.7551 52.8043 43.1745 52.7638 43.5912 52.734L43.6318 54.1086V54.1979L46.9059 55.5292L65.7064 63.1706Z" fill="#F2D4CF"/>
<path d="M36.2745 13.4284C34.8019 15.9241 32.781 18.0522 30.3648 19.6519C27.6964 21.4849 24.7882 22.9418 21.7222 23.9813L14.5462 18.9213L11.0908 16.486C12.6634 12.4665 15.1303 8.85763 18.3047 5.93306C19.1661 5.15046 20.0911 4.44087 21.0701 3.81165L24.5878 6.03588L36.2745 13.4284Z" fill="url(#paint0_linear_139_1583)"/>
</g>
<defs>
<filter id="filter0_d_139_1583" x="0.423584" y="0.200012" width="69.2827" height="81.3411" filterUnits="userSpaceOnUse" color-interpolation-filters="sRGB">
<feFlood flood-opacity="0" result="BackgroundImageFix"/>
<feColorMatrix in="SourceAlpha" type="matrix" values="0 0 0 0 0 0 0 0 0 0 0 0 0 0 0 0 0 0 127 0" result="hardAlpha"/>
<feOffset dy="4"/>
<feGaussianBlur stdDeviation="2"/>
<feComposite in2="hardAlpha" operator="out"/>
<feColorMatrix type="matrix" values="0 0 0 0 0 0 0 0 0 0 0 0 0 0 0 0 0 0 0.25 0"/>
<feBlend mode="normal" in2="BackgroundImageFix" result="effect1_dropShadow_139_1583"/>
<feBlend mode="normal" in="SourceGraphic" in2="effect1_dropShadow_139_1583" result="shape"/>
</filter>
<linearGradient id="paint0_linear_139_1583" x1="27.9814" y1="31.5739" x2="38.8615" y2="8.99805" gradientUnits="userSpaceOnUse">
<stop offset="0.29" stop-color="#00214E"/>
<stop offset="0.51" stop-color="#6878B1"/>
<stop offset="0.79" stop-color="#00214E"/>
</linearGradient>
</defs>
</svg>
